<?xml version="1.0" encoding="UTF-8" standalone="no"?>
<!-- Created with Inkscape (http://www.inkscape.org/) -->

<svg
   version="1.1"
   id="svg1"
   width="74.700974"
   height="85.609314"
   viewBox="0 0 93.376211 107.01164"
   xmlns="http://www.w3.org/2000/svg"
   xmlns:svg="http://www.w3.org/2000/svg">
  <defs
     id="defs1" />
  <g
     id="g1"
     transform="translate(-260.39504,-203.95496)">
    <path
       id="path1"
       style="fill:#008080;stroke-width:0.537894"
       d="m 302.08705,203.95515 c -0.51264,0.002 -25.22096,28.00907 -29.16994,33.06479 -9.41453,12.05286 -13.06117,22.48379 -12.4585,35.6366 0.31873,6.95814 1.77413,13.13963 4.50581,19.14434 1.3067,2.87216 3.61028,6.96406 3.92326,6.96864 0.0905,0.002 0.60466,-1.39166 1.14266,-3.09595 2.81181,-8.90848 8.1118,-18.05325 15.42611,-26.6158 3.25344,-3.80866 8.61823,-9.27789 7.36915,-7.513 -10.44666,14.76084 -15.8112,25.16879 -19.23558,37.32354 l -1.10615,3.92871 0.8974,1.01685 c 2.86588,3.24655 9.30343,6.40224 14.38737,7.05288 0.50421,0.0644 9.87776,0.10916 20.8299,0.0982 l 19.9131,-0.0204 -0.26263,-25.4272 -0.26264,-25.42723 12.89237,-0.13233 12.89251,-0.13318 -21.91433,-23.84895 c -12.05316,-13.11723 -23.57452,-25.68861 -25.60268,-27.93609 -2.02824,-2.24749 -3.90345,-4.08552 -4.16719,-4.08461 z m 0.0899,9.53975 18.59382,20.095 18.59295,20.09504 -8.77283,0.0311 -8.77381,0.0309 0.26096,25.26405 0.26102,25.26403 -17.31862,0.0239 c -9.52535,0.0134 -17.90133,-0.0995 -18.61296,-0.25075 -1.67663,-0.35623 -3.79566,-1.38041 -4.34642,-2.1 -0.38222,-0.49946 -0.32956,-0.68752 0.44154,-1.58478 0.48135,-0.56011 2.91819,-2.55912 5.41605,-4.44141 7.02406,-5.29309 10.15678,-8.93618 12.74934,-14.82789 3.0302,-6.88647 4.28637,-14.11991 4.67615,-26.92769 0.31963,-10.50392 0.42045,-9.51463 -0.93712,-9.24404 -2.75852,0.54988 -9.68669,2.65234 -13.39249,4.06453 -8.26626,3.15016 -13.93826,6.80863 -18.11117,11.68191 -2.72619,3.18372 -4.2395,5.87238 -5.62384,9.99493 -0.70166,2.08979 -0.98394,2.62773 -1.06732,2.03174 -0.21462,-1.53258 0.52096,-8.3839 1.23225,-11.47877 0.99798,-4.34201 4.00786,-10.9949 6.93779,-15.33478 2.62529,-3.88862 10.8896,-13.66979 21.12534,-25.00213 z" />
  </g>
</svg>
