<?xml version="1.0" encoding="UTF-8" standalone="no"?>
<!-- Created with Inkscape (http://www.inkscape.org/) -->
<!-- NOTE: Only the width/height were changed to fit a header; all vector paths and viewBox remain exactly as in your original file. -->
<svg
   version="1.1"
   id="svg1"
   width="64"
   height="52"
   viewBox="0 0 511.64178 415.0605"
   xmlns="http://www.w3.org/2000/svg"
   xmlns:svg="http://www.w3.org/2000/svg">
  <defs
     id="defs1" />
  <g
     id="g1"
     transform="translate(-176,-176.00001)">
    <path
       id="path1"
       style="fill:#008080;stroke-width:0.924039"
       d="m 423.1841,305.90257 c -0.95043,0.003 -46.75786,44.58613 -54.07899,52.63384 -17.45399,19.18631 -24.21447,35.79072 -23.09727,56.72791 0.59099,11.07624 3.28913,20.91622 8.35359,30.47476 2.42255,4.57223 6.69312,11.0857 7.27322,11.09309 0.16795,0.003 1.12119,-2.2154 2.11852,-4.92839 5.21295,-14.18087 15.03863,-28.73787 28.59898,-42.36811 6.03168,-6.06281 15.97752,-14.76896 13.6619,-11.95958 -19.36736,23.49697 -29.3129,40.06478 -35.66139,59.41324 l -2.05085,6.25386 1.66375,1.61869 c 5.31312,5.16807 17.24795,10.19135 26.67312,11.22704 0.93476,0.10275 18.31285,0.17379 38.61731,0.15642 l 36.91743,-0.0321 -0.48697,-40.47614 -0.48698,-40.47614 23.90174,-0.21069 23.90171,-0.21192 -40.62755,-37.96385 c -22.34568,-20.88058 -43.70547,-40.89223 -47.46562,-44.46987 -3.76018,-3.57766 -7.23666,-6.5035 -7.72564,-6.50209 z m 0.16656,15.18577 34.47166,31.98808 34.47005,31.98808 -16.26434,0.0489 -16.26595,0.0489 0.48384,40.21636 0.48384,40.21635 -32.1074,0.0379 c -17.65937,0.021 -33.18786,-0.15865 -34.50715,-0.39926 -3.10828,-0.56699 -7.03682,-2.19734 -8.05789,-3.34286 -0.70862,-0.79503 -0.61103,-1.09444 0.81846,-2.52268 0.89249,-0.89172 5.41022,-4.07373 10.04093,-7.06999 13.0222,-8.42587 18.8301,-14.2251 23.63645,-23.60374 5.61794,-10.9622 7.94668,-22.47661 8.66927,-42.86469 0.59257,-16.72053 0.7794,-15.14566 -1.73722,-14.71496 -5.11425,0.87525 -17.95852,4.2221 -24.82884,6.47008 -15.32511,5.01451 -25.84048,10.83825 -33.57692,18.59573 -5.05421,5.06798 -7.85974,9.34796 -10.42605,15.91038 -1.3009,3.32658 -1.82423,4.18287 -1.97884,3.23424 -0.39787,-2.43973 0.96585,-13.34592 2.28457,-18.27243 1.85012,-6.91183 7.43029,-17.50218 12.86214,-24.41055 4.86711,-6.19009 20.18854,-21.76015 39.1649,-39.79944 z" />
  </g>
</svg>
